<svg width="100%" viewBox="0 0 309 162" fill="none" xmlns="http://www.w3.org/2000/svg">
<path d="M21.025 36.14C-5.68495 69.755 -9.28996 123.78 32.43 158.295C27.63 102.795 63.3451 78.76 68.7451 72.455C30.0301 57.45 30.33 47.545 21.025 36.14Z" fill="white"/>
<path d="M101.16 140.885C100.16 141.215 70.5201 144.385 42.0351 122.885C36.0001 118.335 33.6301 156.575 36.9301 158.3C61.0001 170.88 101.16 140.885 101.16 140.885Z" fill="white"/>
<path d="M42.055 50.5C42.45 51.055 42.855 51.58 43.26 52.09L43.47 52.35C43.595 52.505 43.72 52.645 43.845 52.795C61.785 73.335 100.015 49.895 81.715 19.02C98.1 38.68 84.91 59.695 66.425 62.92C72.0457 62.3756 77.4342 60.405 82.08 57.195C90.45 51.37 91.955 44.89 93.685 30.78C95.415 16.67 99.475 9.96001 110.525 2.28001C37.22 -7.88499 28.8 31.195 41.71 50L42.055 50.5Z" fill="white"/>
<path d="M111.5 81C111.5 63.92 124.81 50.86 142.225 50.86C159.475 50.86 172.87 63.92 172.87 81C172.87 98.08 159.5 111.14 142.23 111.14C124.9 111.14 111.5 98.08 111.5 81ZM118.115 81C118.115 94.565 128.665 104.945 142.225 104.945C155.725 104.945 166.255 94.65 166.255 81C166.255 67.435 155.705 57.055 142.225 57.055C128.67 57.055 118.12 67.435 118.12 81H118.115Z" fill="white"/>
<path d="M184.765 51.695H191.13V110.305H184.765V51.695Z" fill="white"/>
<path d="M209.55 52.615C210.371 52.6474 211.164 52.9203 211.831 53.4C212.498 53.8796 213.01 54.5447 213.302 55.3126C213.594 56.0805 213.653 56.9173 213.473 57.7189C213.294 58.5205 212.882 59.2516 212.29 59.8212C211.698 60.3908 210.952 60.7738 210.144 60.9225C209.336 61.0713 208.502 60.9792 207.746 60.6578C206.99 60.3364 206.345 59.7998 205.891 59.1148C205.438 58.4298 205.196 57.6266 205.195 56.805C205.217 55.672 205.689 54.5943 206.505 53.8086C207.322 53.0229 208.417 52.5936 209.55 52.615V52.615ZM212.55 68.775V110.305H206.285V68.775H212.55Z" fill="white"/>
<path d="M231.65 52.615C232.471 52.6464 233.265 52.9185 233.933 53.3976C234.6 53.8767 235.112 54.5415 235.405 55.3093C235.698 56.0772 235.758 56.9142 235.579 57.7161C235.4 58.5181 234.989 59.2496 234.397 59.8197C233.805 60.3898 233.059 60.7733 232.25 60.9224C231.442 61.0715 230.608 60.9797 229.852 60.6584C229.095 60.3371 228.45 59.8005 227.997 59.1154C227.543 58.4302 227.301 57.6268 227.3 56.805C227.322 55.6729 227.793 54.5959 228.608 53.8104C229.424 53.0248 230.518 52.5949 231.65 52.615V52.615ZM234.65 68.775V110.305H228.385V68.775H234.65Z" fill="white"/>
<path d="M255.68 68.775V75.725C258.945 70.955 264.22 67.94 271.255 67.94C280.8 67.94 287.665 73.63 287.665 85.94V110.305H281.385V86.695C281.385 77.65 276.445 73.8 270.085 73.8C261.29 73.8 255.68 81.25 255.68 89.375V110.305H249.32V68.775H255.68Z" fill="white"/>
<path d="M304.745 52.615C305.566 52.6464 306.36 52.9185 307.028 53.3976C307.695 53.8767 308.207 54.5415 308.5 55.3093C308.793 56.0772 308.853 56.9142 308.674 57.7161C308.495 58.5181 308.084 59.2496 307.492 59.8197C306.9 60.3898 306.154 60.7733 305.345 60.9224C304.537 61.0715 303.703 60.9797 302.947 60.6584C302.19 60.3371 301.545 59.8005 301.092 59.1154C300.638 58.4302 300.396 57.6268 300.395 56.805C300.417 55.6729 300.888 54.5959 301.703 53.8104C302.519 53.0248 303.613 52.5949 304.745 52.615V52.615ZM307.745 68.775V110.305H301.5V68.775H307.745Z" fill="white"/>
</svg>